<svg xmlns="http://www.w3.org/2000/svg" viewBox="0 0 47.5 47.5"><defs><clipPath id="a"><path d="M0 38h38V0H0v38Z"/></clipPath></defs><g clip-path="url(#a)" transform="matrix(1.25 0 0 -1.25 0 47.5)"><path fill="#f18f26" d="M25.925 18.748c-2.392-.797-3.189 3.189-3.189 3.189s1.088 1.092.264 2.062c1.283 1.283.533 1.925.533 1.925a5.638 5.638 0 0 1-7.974 0 4.821 4.821 0 0 1-.624-.764 5.94 5.94 0 0 1-.191-.296l-.016-.031a5.605 5.605 0 0 1-.682-1.701c-.176-.359-.427-.743-.879-1.195-1.595-1.594-5.581.797-8.771-2.392-.033-.032-.051-.078-.077-.116-.107-.095-.218-.179-.321-.282C.255 15.404.612 8.978 4.796 4.794 8.77.82 14.764.307 18.563 3.475c.066.035.132.069.185.123.081.081.142.158.218.237.06.056.123.105.181.162 1.909 1.91 2.641 4.206 2.352 6.552-.076 1.116-.186 1.991.44 2.617.797.797 3.188 0 4.783 1.595 2.391 2.392.716 4.49-.797 3.987"/><path fill="#642116" d="M33.049 30.929 20.908 18.787l-2.122 2.121 12.142 12.143 2.121-2.122Z"/><path fill="#f18f26" d="M36.204 33.815a1.13 1.13 0 0 0-.001-1.593l-3.187-3.185a1.129 1.129 0 0 0-1.592 0l-2.39 2.389a1.13 1.13 0 0 0 .001 1.593l3.187 3.185a1.129 1.129 0 0 0 1.592 0l2.39-2.389Z"/><path fill="#ccd6dd" d="m21 17.465-1.414-1.415-3.536 3.536L17.464 21 21 17.465ZM17.464 13.929l-1.414-1.414-3.536 3.535 1.414 1.415 3.536-3.536Z"/><path fill="#642116" d="M13.928 11.808a1.003 1.003 0 0 0 0-1.414 1.003 1.003 0 0 0-1.414 0l-2.122 2.121a1.004 1.004 0 0 0 0 1.414h.001a1.003 1.003 0 0 0 1.414 0l2.121-2.121Z"/></g></svg>